<?xml version="1.0" standalone="no"?>
<!DOCTYPE svg PUBLIC "-//W3C//DTD SVG 20010904//EN"
 "http://www.w3.org/TR/2001/REC-SVG-20010904/DTD/svg10.dtd">
<svg version="1.0" xmlns="http://www.w3.org/2000/svg"
 width="330.000000pt" height="330.000000pt" viewBox="0 0 330.000000 330.000000"
 preserveAspectRatio="xMidYMid meet">
<metadata>
Created by potrace 1.14, written by Peter Selinger 2001-2017
</metadata>
<g transform="translate(0.000000,330.000000) scale(0.100000,-0.100000)"
fill="#000000" stroke="none">
<path d="M0 1650 l0 -1650 1650 0 1650 0 0 1650 0 1650 -1650 0 -1650 0 0
-1650z m978 982 l2 -312 -312 2 -313 3 -3 299 c-2 214 1 303 9 312 10 12 66
14 313 12 l301 -3 3 -313z m166 312 c13 -5 16 -23 16 -90 l0 -84 45 0 45 0 0
40 0 40 44 0 45 0 3 48 3 47 82 3 c80 3 83 2 89 -22 3 -13 4 -35 2 -47 -3 -23
-7 -24 -90 -27 l-88 -3 0 -39 0 -40 -45 0 -45 0 0 -180 0 -180 45 0 45 0 0
135 0 135 130 0 130 0 0 33 c0 40 15 57 50 57 35 0 50 -17 50 -57 0 -33 0 -33
-50 -33 l-50 0 0 -134 0 -135 48 -3 47 -3 3 -87 3 -88 39 0 c43 0 56 -18 44
-64 -6 -25 -5 -26 40 -26 l46 0 0 -45 0 -45 44 0 45 0 3 43 c3 42 3 42 45 45
l42 3 3 -43 c3 -43 3 -43 46 -46 l42 -3 0 45 0 45 43 3 c42 3 42 3 45 46 l3
42 -45 0 -45 0 -3 133 -3 132 -79 3 c-88 3 -96 -1 -96 -55 0 -32 1 -33 45 -33
l45 0 0 -90 0 -91 -87 3 -88 3 -3 42 c-3 41 -4 42 -44 45 l-42 3 3 67 c3 96
-2 108 -50 108 -39 0 -39 0 -39 40 l0 40 69 0 c95 0 101 3 101 56 l0 44 -42 0
-43 0 2 127 c1 69 6 130 11 135 5 5 42 8 83 6 l74 -3 3 -87 3 -87 42 -3 c42
-3 42 -3 45 -45 l3 -43 -45 0 -46 0 0 -38 c0 -21 5 -43 12 -50 8 -8 53 -12
135 -12 l123 0 0 -175 0 -175 135 0 136 0 -3 -87 -3 -88 -42 -3 -42 -3 -3 43
c-3 43 -3 43 -45 46 l-42 3 -3 -43 -3 -43 -88 -3 -88 -3 3 -42 3 -42 88 -3 88
-3 -3 -42 -3 -42 -87 -3 -88 -3 0 -44 0 -45 225 0 225 0 0 135 0 135 40 0 39
0 3 -87 3 -88 87 -3 c82 -3 88 -4 94 -26 3 -13 4 -32 2 -42 -2 -16 4 -20 40
-22 42 -3 42 -3 42 -43 l0 -39 -84 0 c-76 0 -85 2 -91 20 -3 11 -3 29 0 40 6
19 2 20 -84 20 l-90 0 -3 -37 c-3 -36 -5 -38 -43 -43 l-40 -5 -3 -87 -3 -87
27 -7 c38 -10 58 7 62 50 3 35 5 36 43 36 39 0 39 0 39 38 0 48 14 62 63 62
37 0 39 -2 33 -25 -4 -14 -4 -36 0 -50 6 -24 9 -25 90 -25 l84 0 0 -40 c0 -42
-16 -53 -65 -47 -15 1 -19 -3 -18 -18 6 -49 -5 -65 -47 -65 -34 0 -40 3 -46
26 -4 14 -4 52 -1 85 l5 59 -49 0 -49 0 0 -130 0 -130 -40 0 -40 0 0 -45 0
-45 40 0 40 0 0 -45 0 -45 89 0 c98 0 110 -8 95 -64 -6 -25 -5 -26 40 -26 l46
0 0 -46 0 -45 -42 3 c-38 3 -43 6 -44 28 -2 59 -2 60 -44 60 -37 0 -39 -2 -46
-36 -3 -19 -4 -55 -2 -79 7 -55 1 -63 -47 -67 -39 -3 -40 -4 -43 -45 l-3 -42
48 -3 48 -3 0 -40 0 -40 -47 -3 -48 -3 0 -129 c0 -120 -1 -129 -20 -135 -11
-3 -29 -4 -39 0 -17 5 -20 0 -23 -37 -3 -43 -3 -43 -45 -46 l-43 -3 0 45 0 44
-42 -3 c-42 -3 -43 -4 -48 -41 l-5 -39 -175 0 -175 0 -3 40 -3 40 -89 0 -90 0
0 -42 0 -43 -85 0 -85 0 0 43 0 43 -50 0 -50 0 0 -43 0 -43 -130 0 -130 0 0
43 0 44 -45 0 -45 0 0 -44 0 -43 -46 0 -45 0 3 43 c3 37 6 42 28 43 59 2 60 2
60 43 0 36 -3 40 -30 46 -16 4 -55 5 -87 4 l-58 -3 -3 133 -3 132 43 -3 c42
-3 43 -4 48 -43 5 -39 6 -40 48 -43 l42 -3 0 46 0 46 43 -3 c42 -3 42 -3 42
-43 0 -40 0 -40 -42 -43 -43 -3 -43 -3 -43 -43 l0 -39 90 0 90 0 0 85 0 85 85
0 85 0 0 90 0 90 -39 0 c-40 0 -40 0 -43 -42 -3 -43 -3 -43 -43 -43 -40 0 -40
0 -43 43 l-3 42 -45 0 -44 0 0 45 0 44 88 3 87 3 3 43 c3 42 3 42 43 42 l39 0
0 45 0 46 -82 -3 -83 -3 -5 -40 -5 -40 -87 -3 -88 -3 0 -44 0 -45 -45 0 -45 0
0 -45 0 -45 46 0 45 0 -3 -42 c-3 -43 -3 -43 -43 -43 -40 0 -40 0 -43 43 l-3
42 -45 0 -44 0 0 45 0 45 -90 0 -90 0 0 45 0 45 90 0 91 0 -3 88 -3 87 -42 3
-43 3 0 -45 0 -46 -45 0 -45 0 0 45 0 45 -135 0 -135 0 0 -45 0 -45 44 0 c49
0 64 -18 52 -66 -6 -23 -4 -24 39 -24 l45 0 0 -45 0 -45 -40 0 c-38 0 -40 2
-40 29 0 52 -8 61 -56 61 l-44 0 0 -45 0 -45 -40 0 c-34 0 -41 4 -46 24 -11
47 -2 61 44 64 l42 3 0 44 0 44 -42 3 c-41 3 -43 5 -46 37 -4 39 9 51 56 51
l32 0 0 88 0 89 -34 -2 c-47 -3 -56 -11 -56 -51 0 -33 -1 -34 -40 -34 l-40 0
-2 -177 -3 -178 -45 0 -45 0 -3 209 c-1 129 1 213 8 221 5 6 22 10 38 7 35 -5
55 17 50 55 -3 24 -8 28 -40 31 -20 2 -41 9 -47 16 -8 9 -10 95 -9 267 l3 254
87 3 87 3 3 42 3 42 133 3 132 3 0 -46 0 -45 45 0 45 0 0 45 0 45 45 0 45 0 0
-45 0 -45 45 0 45 0 0 179 0 180 43 3 42 3 0 85 0 85 -42 3 -43 3 0 128 c0 70
3 131 7 134 8 9 46 9 67 1z m1794 -311 l2 -313 -310 0 -310 0 0 309 c0 238 3
311 13 314 6 3 145 5 307 4 l295 -2 3 -312z m-708 177 l0 -40 -45 0 -45 0 0
40 0 40 45 0 45 0 0 -40z m710 -671 l0 -90 -42 3 c-36 3 -43 6 -41 23 2 11 0
30 -2 43 -5 21 -10 22 -89 22 -67 0 -85 3 -90 16 -8 21 -8 59 1 67 3 4 64 7
135 7 l128 0 0 -91z m-442 -221 c-3 -43 -3 -43 -45 -46 l-43 -3 0 45 0 46 46
0 45 0 -3 -42z m442 -533 l0 -45 -42 0 -43 0 -1 45 -1 45 44 0 43 0 0 -45z
m-1960 -715 l0 -310 -312 2 -313 3 -3 285 c-1 157 0 295 3 308 l5 22 310 0
310 0 0 -310z m1870 -59 c5 -11 10 -47 10 -80 0 -71 -17 -95 -60 -86 -25 5
-29 3 -35 -23 -3 -16 -5 -35 -3 -43 2 -10 -9 -14 -42 -14 l-45 0 -3 44 c-3 42
-3 43 22 37 14 -3 37 -4 50 0 22 5 23 9 18 73 -6 83 7 111 48 111 19 0 33 -7
40 -19z"/>
<path d="M450 2630 l0 -220 220 0 220 0 0 220 0 220 -220 0 -220 0 0 -220z
m348 2 l3 -133 -133 3 -133 3 -3 119 c-2 80 1 123 9 132 9 12 38 14 133 12
l121 -3 3 -133z"/>
<path d="M1883 2763 c-8 -2 -13 -22 -13 -44 l0 -39 45 0 45 0 0 45 c0 44 -1
45 -32 44 -18 0 -39 -3 -45 -6z"/>
<path d="M1434 2581 c-2 -2 -4 -42 -4 -88 l0 -83 -44 0 -45 0 -3 -42 c-3 -43
-3 -43 -45 -46 l-43 -3 0 45 0 46 -45 0 -44 0 -3 -132 -3 -133 -42 -3 -43 -3
0 -45 0 -44 -45 0 -45 0 0 45 0 45 -45 0 -45 0 0 -46 0 -45 -42 3 c-43 3 -43
3 -46 46 l-3 43 -41 -3 -42 -3 3 -67 c4 -108 4 -108 -94 -108 -90 0 -95 3 -95
61 0 28 2 29 45 29 l45 0 0 45 0 45 -45 0 -45 0 0 -45 0 -45 -40 0 -40 0 0
-175 0 -175 40 0 c40 0 40 0 40 -38 0 -47 14 -62 57 -62 32 0 33 -2 33 -39 0
-41 11 -51 55 -51 40 0 46 20 43 146 l-3 119 -47 3 -48 3 0 -40 0 -41 -45 0
-46 0 3 83 3 82 90 0 90 0 -1 -42 -1 -43 89 0 88 0 0 -40 0 -40 136 0 135 0
-3 -47 -3 -48 -132 -3 -133 -3 0 -38 c0 -50 8 -52 140 -51 58 1 111 1 118 1 7
-1 12 -16 12 -40 0 -40 0 -40 43 -43 l42 -3 3 -87 3 -87 -43 -3 c-43 -3 -43
-3 -46 -45 l-3 -43 45 0 46 0 0 44 0 45 43 3 42 3 3 128 c3 127 1 134 -32 128
-6 -1 -20 0 -33 4 -22 5 -23 10 -23 95 l0 90 44 0 45 0 3 -47 3 -48 43 -3 42
-3 0 -84 0 -84 43 -3 c42 -3 42 -3 45 -45 3 -43 3 -43 43 -43 l39 0 0 130 0
130 -85 0 -85 0 0 50 0 50 174 0 c166 0 175 1 181 20 3 11 4 29 0 40 -5 17
-17 20 -93 22 l-87 3 0 40 0 40 45 5 45 5 3 88 3 87 39 0 c46 0 52 -12 50 -98
-1 -31 -1 -63 -1 -69 1 -9 25 -13 85 -13 l85 0 3 -42 c3 -43 3 -43 43 -43 l40
0 3 87 3 87 -88 3 -88 3 -3 43 -3 42 -45 0 c-42 0 -44 1 -38 24 3 14 3 34 -1
45 -6 20 -14 21 -135 21 l-129 0 -3 -42 c-3 -43 -3 -43 -43 -43 l-40 0 -3 178
-2 177 45 0 45 0 0 -45 0 -45 40 0 40 0 0 45 0 45 -40 0 -39 0 -3 86 -3 87
-38 1 c-21 1 -41 -1 -43 -3z m-99 -486 c0 -40 0 -40 -42 -43 l-43 -3 0 -45 0
-44 45 0 45 0 0 -90 0 -90 45 0 45 0 0 46 0 45 43 -3 c42 -3 42 -3 42 -43 0
-40 0 -40 -42 -43 -43 -3 -43 -3 -43 -43 l0 -39 -45 0 -45 0 0 40 0 40 -45 0
-45 0 0 -40 0 -40 -45 0 -45 0 0 40 0 40 -45 0 -45 0 0 45 0 45 -44 0 -45 0
-3 -42 c-3 -43 -3 -43 -45 -46 l-43 -3 0 45 0 46 45 0 45 0 0 44 0 45 -42 3
c-43 3 -43 3 -46 46 l-3 42 45 0 46 0 0 -45 0 -45 45 0 45 0 0 -44 0 -45 43
-3 c42 -3 42 -3 45 -45 l3 -43 45 0 44 0 0 89 0 90 -42 3 c-43 3 -43 3 -46 46
l-3 42 45 0 46 0 0 46 0 45 43 -3 c42 -3 42 -3 42 -43z"/>
<path d="M1877 2403 c-4 -3 -7 -24 -7 -45 l0 -38 45 0 45 0 0 45 0 45 -38 0
c-21 0 -42 -3 -45 -7z"/>
<path d="M1785 1653 l2 -48 39 0 39 0 0 45 0 45 -41 3 -42 3 3 -48z"/>
<path d="M1966 1685 c-3 -9 -6 -50 -6 -91 0 -69 -2 -74 -23 -79 -13 -4 -27 -5
-33 -4 -27 5 -34 -3 -34 -41 l0 -40 45 0 45 0 0 -44 0 -45 43 -3 c42 -3 42 -3
45 -45 l3 -43 -133 0 -133 0 3 -110 c6 -149 2 -160 -48 -160 l-40 0 0 -45 0
-45 40 0 c34 0 41 -4 46 -24 11 -46 -3 -66 -47 -66 l-40 0 3 -42 3 -43 80 0
80 0 5 40 5 40 88 3 87 3 0 -46 0 -45 -45 0 -46 0 3 -87 c3 -86 4 -88 28 -89
59 -2 60 -2 60 -43 0 -47 9 -51 135 -51 126 0 135 4 135 50 0 40 20 57 51 45
24 -8 37 8 41 50 l3 40 85 5 85 5 3 38 c3 36 4 37 43 37 l39 0 0 45 0 45 -40
0 -40 0 0 -45 0 -45 -180 0 -180 0 0 -85 c0 -47 -3 -85 -7 -85 -5 0 -45 -2
-90 -3 l-83 -2 0 87 0 87 43 3 c42 3 42 3 45 46 l3 42 -45 0 -46 0 0 45 0 45
-39 0 c-42 0 -51 11 -51 61 l0 29 90 0 90 0 0 90 0 89 133 3 132 3 3 42 c3 42
3 42 45 45 l42 3 3 134 3 133 -27 -6 c-56 -14 -64 -3 -64 89 0 81 -1 85 -24
91 -45 11 -65 -3 -68 -49 -3 -42 -3 -42 -45 -45 -43 -3 -43 -3 -43 -42 0 -33
4 -41 24 -46 13 -3 32 -4 42 -2 16 2 20 -4 22 -39 l3 -43 -90 0 -90 0 -3 41
c-3 41 -3 41 -45 44 l-43 3 0 -44 0 -44 -45 0 -45 0 0 46 c0 41 2 45 21 39 11
-4 31 -4 45 -1 20 5 24 12 24 46 0 39 0 39 43 42 l42 3 0 45 0 45 -81 3 c-68
2 -83 0 -88 -13z m262 -392 l3 -43 -45 0 -46 0 0 46 0 45 43 -3 c42 -3 42 -3
45 -45z m-178 -177 l0 -45 -42 -3 c-43 -3 -43 -3 -46 -45 l-3 -43 -44 0 -44 0
-3 -42 c-3 -43 -3 -43 -44 -46 l-41 -3 1 45 1 46 43 0 42 0 0 90 0 90 90 0 90
0 0 -44z"/>
<path d="M897 1423 c-4 -3 -7 -24 -7 -45 l0 -38 45 0 45 0 0 45 0 45 -38 0
c-21 0 -42 -3 -45 -7z"/>
<path d="M1707 1334 c-4 -4 -7 -25 -7 -46 0 -38 0 -38 40 -38 35 0 40 3 46 27
4 14 2 33 -3 42 -10 17 -64 27 -76 15z"/>
<path d="M2590 1115 l0 -45 40 0 40 0 0 45 0 45 -40 0 -40 0 0 -45z"/>
<path d="M2234 1057 c-2 -7 -3 -67 -2 -133 l3 -119 130 0 130 0 0 130 0 130
-128 3 c-99 2 -129 0 -133 -11z m171 -122 l0 -40 -40 0 -40 0 -3 43 -3 43 43
-3 43 -3 0 -40z"/>
<path d="M1520 670 l0 -40 40 0 40 0 0 40 0 40 -40 0 -40 0 0 -40z"/>
<path d="M1707 624 c-4 -4 -7 -44 -7 -90 0 -93 1 -94 95 -94 74 0 76 4 73 101
l-3 84 -75 3 c-42 1 -79 0 -83 -4z"/>
<path d="M1353 533 c-7 -2 -13 -22 -13 -44 0 -33 4 -40 24 -45 45 -11 66 3 66
46 0 31 -4 39 -22 44 -26 7 -38 7 -55 -1z"/>
<path d="M1533 533 c-7 -2 -13 -22 -13 -43 0 -30 5 -40 20 -45 39 -12 60 3 60
45 0 45 -25 61 -67 43z"/>
<path d="M2513 533 c-7 -2 -13 -22 -13 -43 0 -32 4 -39 26 -44 44 -11 64 1 64
39 0 44 -35 66 -77 48z"/>
<path d="M2410 2630 l0 -220 219 0 c190 0 220 2 225 16 8 20 8 388 0 408 -5
14 -35 16 -225 16 l-219 0 0 -220z m345 130 c4 -6 6 -65 6 -133 l0 -122 -130
-3 -131 -3 0 129 c0 71 3 132 7 135 11 11 241 8 248 -3z"/>
<path d="M450 671 c0 -190 2 -220 16 -225 20 -8 388 -8 408 0 14 5 16 35 16
225 l0 219 -220 0 -220 0 0 -219z m348 -2 l-3 -130 -122 0 c-68 0 -127 2 -133
6 -11 7 -14 237 -3 248 3 4 64 7 135 7 l129 0 -3 -131z"/>
</g>
</svg>
