<?xml version="1.0" standalone="no"?>
<!DOCTYPE svg PUBLIC "-//W3C//DTD SVG 20010904//EN"
 "http://www.w3.org/TR/2001/REC-SVG-20010904/DTD/svg10.dtd">
<svg version="1.0" xmlns="http://www.w3.org/2000/svg"
 width="329.000000pt" height="329.000000pt" viewBox="0 0 329.000000 329.000000"
 preserveAspectRatio="xMidYMid meet">
<metadata>
Created by potrace 1.14, written by Peter Selinger 2001-2017
</metadata>
<g transform="translate(0.000000,329.000000) scale(0.100000,-0.100000)"
fill="#000000" stroke="none">
<path d="M361 2936 c-8 -9 -11 -98 -9 -312 l3 -299 313 -3 312 -2 -2 312 -3
313 -301 3 c-247 2 -303 0 -313 -12z m529 -306 l0 -220 -220 0 -220 0 0 220 0
220 220 0 220 0 0 -220z"/>
<path d="M540 2630 l0 -130 130 0 130 0 0 130 0 130 -130 0 -130 0 0 -130z"/>
<path d="M1077 2943 c-4 -3 -7 -64 -7 -134 l0 -128 43 -3 42 -3 0 -85 0 -85
-42 -3 -43 -3 0 -180 0 -179 -45 0 -45 0 0 45 0 45 -45 0 -45 0 0 -45 0 -45
-45 0 -45 0 0 45 0 45 -130 0 -130 0 0 -45 0 -45 40 0 40 0 0 -45 0 -45 -40 0
-40 0 0 -45 0 -45 84 0 c99 0 99 0 95 108 l-3 67 42 3 41 3 3 -43 c3 -43 3
-43 45 -46 42 -3 42 -3 45 -45 3 -42 3 -42 46 -45 l42 -3 0 -44 0 -44 -42 -3
c-43 -3 -43 -3 -46 -45 l-3 -43 -88 0 -88 0 1 43 1 42 -87 3 -88 3 0 -86 0
-85 40 0 40 0 0 41 0 40 48 -3 47 -3 3 -119 c3 -126 -3 -146 -43 -146 -44 0
-55 10 -55 51 0 36 -2 39 -29 39 -52 0 -61 8 -61 56 l0 44 -40 0 -40 0 0 175
0 175 40 0 40 0 0 45 0 46 -87 -3 -88 -3 -3 -254 c-3 -271 0 -286 44 -275 31
8 54 -11 54 -46 0 -33 -21 -53 -52 -49 -47 6 -48 0 -48 -214 0 -111 4 -208 9
-215 5 -8 23 -12 47 -10 l39 3 3 178 2 177 40 0 c39 0 40 1 40 34 0 40 9 48
56 51 l34 2 0 -88 0 -88 -37 -3 c-37 -3 -38 -4 -41 -45 l-3 -43 40 0 41 0 0
-45 0 -45 -40 0 -40 0 0 -45 0 -45 40 0 40 0 0 46 0 45 48 -3 47 -3 3 -42 c3
-43 3 -43 43 -43 l39 0 0 45 0 45 -45 0 c-43 0 -45 1 -39 24 12 48 -3 66 -52
66 l-44 0 0 45 0 45 135 0 135 0 0 -45 0 -45 45 0 45 0 0 46 0 45 43 -3 42 -3
3 -87 3 -88 -91 0 -90 0 0 -45 0 -45 90 0 90 0 0 -45 0 -45 44 0 45 0 3 -42
c3 -43 3 -43 43 -43 l40 0 0 40 c0 40 0 40 -42 43 l-43 3 0 45 0 44 45 0 45 0
0 45 0 44 88 3 87 3 5 40 5 40 83 3 82 3 0 -46 0 -45 -39 0 c-40 0 -40 0 -43
-42 l-3 -43 -87 -3 -88 -3 0 -44 0 -45 44 0 45 0 3 -42 c3 -43 3 -43 43 -43
40 0 40 0 43 43 3 42 3 42 43 42 l39 0 0 -90 0 -90 -85 0 -85 0 0 -85 0 -85
-90 0 -90 0 0 40 c0 38 1 40 33 40 46 0 59 12 55 51 -3 32 -5 34 -45 37 l-43
3 0 -46 0 -46 -42 3 c-42 3 -43 4 -48 43 -5 39 -6 40 -48 43 l-43 3 3 -132 3
-133 67 3 c96 3 108 -2 108 -49 0 -33 -4 -41 -24 -46 -13 -3 -32 -4 -42 -2
-16 2 -20 -4 -22 -39 l-3 -43 45 0 46 0 0 43 0 44 45 1 45 0 0 -44 0 -44 130
0 130 0 0 44 0 44 50 -1 50 -1 0 -43 0 -43 85 0 85 0 0 45 0 45 54 -6 c30 -4
70 -4 90 0 34 7 36 9 36 46 0 39 0 39 -42 42 l-43 3 -3 88 -3 87 45 0 45 0 3
-87 3 -86 80 1 c44 1 83 1 88 2 4 0 7 38 7 85 l0 85 181 0 180 0 -3 -37 -3
-38 -85 -5 -85 -5 -3 -40 c-4 -45 -14 -55 -59 -55 -32 0 -33 -2 -33 -39 0 -28
-5 -41 -17 -46 -10 -3 -70 -5 -133 -4 l-115 3 0 -40 0 -39 175 0 175 0 5 39
c5 37 6 38 48 41 l42 3 0 -44 0 -45 43 3 c42 3 42 3 45 46 3 34 7 42 18 38 9
-3 26 -3 40 0 24 6 24 7 24 135 l0 129 -40 0 -40 0 0 45 0 45 39 0 c40 0 40 0
43 -42 l3 -43 44 0 44 0 1 40 1 40 -48 3 -48 3 3 42 c3 42 3 42 46 45 23 2 42
8 43 15 0 7 0 38 -1 69 -2 86 4 98 50 98 33 0 41 -4 46 -24 3 -13 4 -32 2 -42
-2 -16 4 -20 40 -22 l42 -3 0 45 0 46 -46 0 c-45 0 -46 1 -40 26 15 56 3 64
-95 64 l-89 0 0 45 0 45 -40 0 -40 0 0 45 0 45 40 0 40 0 0 130 0 130 -39 0
c-38 0 -40 -1 -43 -36 -4 -43 -24 -60 -62 -50 l-27 7 3 87 3 87 40 5 c38 5 40
7 43 43 l3 37 90 0 89 0 0 -40 0 -40 85 0 85 0 0 39 c0 40 0 40 -42 43 -38 3
-43 6 -44 28 -2 62 2 59 -91 62 l-88 3 -3 88 -3 87 -39 0 -40 0 0 -135 0 -135
-225 0 -225 0 0 45 0 44 88 3 87 3 3 43 3 42 -90 0 -91 0 0 45 0 44 88 3 87 3
3 43 3 43 42 -3 c42 -3 42 -3 45 -46 l3 -43 42 3 42 3 3 88 3 87 -136 0 -135
0 0 175 0 175 -123 0 c-82 0 -127 4 -135 12 -7 7 -12 29 -12 50 l0 38 45 0 45
0 0 40 0 40 -45 0 -45 0 0 -40 0 -40 -45 0 -45 0 0 39 c0 42 11 51 61 51 l30
0 -3 88 -3 87 -74 3 c-41 2 -78 -1 -83 -6 -5 -5 -10 -66 -11 -136 l-2 -126 43
0 43 0 -3 -47 -3 -48 -82 -3 -83 -3 0 -39 c0 -40 0 -40 39 -40 48 0 53 -12 50
-108 l-3 -67 42 -3 c40 -3 41 -4 44 -45 l3 -42 88 -3 87 -3 0 91 0 90 -46 0
-45 0 3 43 3 42 85 0 85 0 3 -132 3 -133 45 0 45 0 -3 -42 c-3 -43 -3 -43 -45
-46 l-43 -3 0 -45 0 -45 -42 3 c-43 3 -43 3 -46 46 l-3 43 -42 -3 c-42 -3 -42
-3 -45 -45 l-3 -43 -45 0 -44 0 0 45 0 45 -46 0 c-45 0 -46 1 -40 26 12 46 -1
64 -44 64 -47 0 -53 13 -48 108 l3 67 -45 0 -45 0 -3 -42 c-3 -43 -3 -43 -43
-43 l-39 0 0 45 0 45 40 0 40 0 0 135 0 135 48 0 49 0 -2 38 c-3 37 -3 37 -46
37 -44 0 -44 0 -47 -37 l-3 -38 -130 0 -129 0 0 -135 0 -135 -45 0 -45 0 0
174 0 175 -42 3 -43 3 -3 85 c-2 52 -8 87 -15 92 -15 10 -61 10 -70 1z m441
-447 l3 -86 -46 0 -45 0 2 -177 3 -178 40 0 c40 0 40 0 43 43 l3 42 129 0
c121 0 129 -1 135 -21 4 -11 4 -31 1 -45 -5 -20 -12 -24 -46 -24 l-39 0 -3
-87 -3 -88 -45 -5 -45 -5 0 -40 0 -40 90 -5 90 -5 -1 -37 c-1 -36 -1 -37 40
-40 l41 -3 0 -45 0 -45 -40 0 c-38 0 -40 2 -37 27 1 16 -2 37 -8 48 -10 20
-19 20 -178 18 l-167 -3 -3 -48 -3 -48 -42 3 c-42 3 -42 3 -47 48 l-5 45 -40
0 -40 0 -3 -87 c-3 -85 -2 -88 21 -93 13 -4 27 -5 33 -4 33 6 35 -1 32 -128
l-3 -128 -42 -3 -43 -3 0 -45 0 -44 -46 0 -45 0 3 43 c3 42 3 42 46 45 l43 3
-3 87 -3 87 -42 3 c-43 3 -43 3 -43 43 l0 39 -119 0 c-66 0 -126 3 -135 6 -11
4 -16 19 -16 44 0 47 14 52 149 50 53 -1 102 -1 109 -1 9 1 12 14 10 44 l-3
42 -132 3 -133 3 0 39 c0 39 0 39 43 42 42 3 42 3 45 46 l3 42 45 0 44 0 0 45
0 45 -45 0 -45 0 0 45 0 45 -45 0 -45 0 0 45 0 45 45 0 45 0 0 -45 0 -45 45 0
45 0 0 44 0 45 43 3 42 3 3 133 3 132 44 0 45 0 0 -46 0 -45 43 3 c42 3 42 3
45 46 l3 42 45 0 44 0 0 83 c0 46 2 86 4 88 2 2 22 4 43 3 l38 -1 3 -87z m442
-131 l0 -45 -45 0 -45 0 0 38 c0 21 3 42 7 45 3 4 24 7 45 7 l38 0 0 -45z
m-88 -357 l3 -43 88 -3 88 -3 -3 -87 -3 -87 -40 0 c-40 0 -40 0 -43 42 l-3 42
-86 3 -85 3 -2 88 -1 87 42 0 42 0 3 -42z m263 -358 l0 -45 -42 -3 c-43 -3
-43 -3 -43 -42 0 -33 -4 -41 -24 -46 -13 -3 -32 -4 -42 -2 -16 2 -20 -4 -22
-39 l-3 -43 45 0 46 0 0 44 0 44 43 -3 c42 -3 42 -3 45 -44 l3 -41 90 0 90 0
-3 43 c-2 35 -6 41 -22 39 -10 -2 -29 -1 -42 2 -20 5 -24 13 -24 46 0 42 1 42
60 44 22 1 26 6 30 46 5 48 19 57 66 46 23 -6 24 -10 24 -91 0 -92 8 -103 64
-89 l27 6 -3 -133 -3 -134 -42 -3 c-42 -3 -42 -3 -45 -45 l-3 -42 -132 -3
-133 -3 0 -89 0 -90 -90 0 -90 0 0 -29 c0 -50 9 -61 51 -61 l39 0 0 -45 0 -45
46 0 45 0 -3 -42 c-3 -43 -3 -43 -45 -46 l-43 -3 0 46 0 46 -87 -3 -88 -3 -5
-40 -5 -40 -77 -3 c-70 -3 -78 -1 -88 19 -7 11 -9 32 -6 45 5 20 13 24 46 24
43 0 57 20 46 66 -5 20 -12 24 -46 24 -43 0 -57 20 -46 66 5 20 12 24 46 24
37 0 39 2 46 35 3 20 5 80 2 135 l-4 100 134 0 133 0 -3 43 c-3 42 -3 42 -45
45 l-43 3 0 45 0 44 -45 0 -45 0 0 40 c0 38 7 46 34 41 6 -1 20 0 33 4 21 5
23 10 23 79 0 109 -2 107 94 104 l81 -3 0 -45z m-551 -46 c13 -5 16 -27 16
-135 l0 -129 -39 0 c-40 0 -40 0 -43 43 -3 42 -3 42 -45 45 l-43 3 0 84 c0 71
3 84 18 88 27 7 118 8 136 1z m-604 -219 l0 -45 -45 0 -45 0 0 38 c0 48 4 52
52 52 l38 0 0 -45z m803 -66 c5 -9 7 -28 3 -42 -6 -24 -11 -27 -46 -27 -34 0
-41 4 -46 24 -9 39 12 68 48 64 17 -2 35 -10 41 -19z m887 -204 l0 -45 -40 0
-40 0 0 45 0 45 40 0 40 0 0 -45z m-175 -180 l0 -130 -130 0 -130 0 -3 119
c-1 66 0 126 2 133 4 11 34 13 133 11 l128 -3 0 -130z m-895 -265 l0 -40 -40
0 -40 0 0 40 0 40 40 0 40 0 0 -40z m268 -129 c2 -61 -1 -87 -10 -92 -18 -12
-129 -11 -147 0 -19 12 -28 130 -12 160 11 20 19 22 89 19 l77 -3 3 -84z
m-454 -7 c11 -4 16 -19 16 -44 0 -43 -21 -57 -66 -46 -20 5 -24 12 -24 45 0
46 28 63 74 45z m184 -41 c3 -34 0 -42 -17 -48 -40 -12 -61 3 -61 45 0 41 10
50 50 47 22 -2 25 -7 28 -44z m980 35 c7 -7 12 -27 12 -44 0 -36 -23 -50 -66
-40 -20 5 -24 12 -24 45 0 21 3 41 7 44 11 11 58 8 71 -5z"/>
<path d="M1250 2096 l0 -46 -46 0 -45 0 3 -42 c3 -43 3 -43 46 -46 l42 -3 0
-90 0 -89 -44 0 -45 0 -3 43 c-3 42 -3 42 -45 45 l-43 3 0 -45 0 -46 45 0 45
0 0 -40 0 -40 45 0 45 0 0 40 0 40 45 0 45 0 0 -40 0 -40 45 0 45 0 0 39 c0
40 0 40 43 43 42 3 42 3 42 43 0 40 0 40 -42 43 l-43 3 0 -45 0 -46 -45 0 -44
0 -3 88 -3 87 -42 3 -43 3 0 44 0 44 43 3 c42 3 42 3 42 43 0 40 0 40 -42 43
l-43 3 0 -45z"/>
<path d="M2147 1334 c-4 -4 -7 -25 -7 -46 l0 -38 46 0 45 0 -3 43 c-3 40 -4
42 -38 45 -20 2 -39 0 -43 -4z"/>
<path d="M1870 1070 l0 -90 -40 0 -40 0 0 -46 0 -45 38 3 c36 3 37 4 40 46 l3
42 44 0 44 0 3 43 c3 42 3 42 46 45 l42 3 0 45 0 44 -90 0 -90 0 0 -90z"/>
<path d="M2322 938 l3 -43 40 0 40 0 0 40 0 40 -43 3 -43 3 3 -43z"/>
<path d="M1347 2943 c-4 -3 -7 -26 -7 -50 l0 -43 -45 0 -45 0 0 -40 0 -40 45
0 45 0 0 40 0 39 88 3 87 3 3 33 c5 52 -10 62 -93 62 -39 0 -75 -3 -78 -7z"/>
<path d="M2333 2943 c-10 -3 -13 -76 -13 -314 l0 -309 310 0 310 0 -2 313 -3
312 -295 2 c-162 1 -301 -1 -307 -4z m521 -109 c8 -20 8 -388 0 -408 -5 -14
-35 -16 -225 -16 l-219 0 0 220 0 220 219 0 c190 0 220 -2 225 -16z"/>
<path d="M2500 2630 l0 -131 131 3 130 3 0 125 0 125 -130 3 -131 3 0 -131z"/>
<path d="M2140 2810 l0 -40 45 0 45 0 0 40 0 40 -45 0 -45 0 0 -40z"/>
<path d="M2677 2223 c-9 -9 -9 -55 1 -70 5 -7 40 -13 92 -15 l85 -3 1 -40 c0
-40 1 -40 42 -43 l42 -3 0 90 0 91 -128 0 c-71 0 -132 -3 -135 -7z"/>
<path d="M2410 1914 l0 -45 43 3 c42 3 42 3 45 46 l3 42 -45 0 -46 0 0 -46z"/>
<path d="M2681 1686 c-7 -8 -11 -30 -9 -48 3 -32 4 -33 48 -33 l45 0 0 45 c0
44 -1 45 -36 48 -22 2 -40 -2 -48 -12z"/>
<path d="M2770 1515 l0 -85 40 0 c42 0 42 1 44 60 1 19 6 24 21 23 49 -6 65 5
65 47 l0 40 -85 0 -85 0 0 -85z"/>
<path d="M2859 1428 c0 -2 -1 -22 -3 -45 l-2 -43 43 0 44 0 -3 43 c-3 41 -4
42 -40 45 -21 2 -38 2 -39 0z"/>
<path d="M355 958 c-3 -13 -4 -151 -3 -308 l3 -285 313 -3 312 -2 0 310 0 310
-310 0 -310 0 -5 -22z m535 -287 c0 -190 -2 -220 -16 -225 -20 -8 -388 -8
-408 0 -14 5 -16 35 -16 225 l0 219 220 0 220 0 0 -219z"/>
<path d="M542 669 l3 -130 125 0 125 0 3 130 3 131 -131 0 -131 0 3 -131z"/>
<path d="M2777 623 c-4 -3 -7 -43 -7 -89 0 -73 2 -82 20 -87 51 -13 70 10 70
90 0 65 -14 93 -48 93 -16 0 -32 -3 -35 -7z"/>
<path d="M2673 434 c-2 -7 -3 -25 -1 -41 3 -26 6 -28 47 -28 l44 0 1 39 1 40
-44 1 c-26 1 -45 -4 -48 -11z"/>
</g>
</svg>
